<?xml version="1.0" encoding="UTF-8" standalone="no"?>
<svg
   class="svg-icon"
   style="width: 1em; height: 1em;vertical-align: middle;fill: currentColor;overflow: hidden;"
   viewBox="0 0 1024 1024"
   version="1.1"
   id="svg22"
   sodipodi:docname="search-book-data.svg"
   inkscape:version="1.4 (86a8ad7, 2024-10-11)"
   xmlns:inkscape="http://www.inkscape.org/namespaces/inkscape"
   xmlns:sodipodi="http://sodipodi.sourceforge.net/DTD/sodipodi-0.dtd"
   xmlns="http://www.w3.org/2000/svg"
   xmlns:svg="http://www.w3.org/2000/svg">
  <defs
     id="defs22" />
  <sodipodi:namedview
     id="namedview22"
     pagecolor="#ffffff"
     bordercolor="#000000"
     borderopacity="0.25"
     inkscape:showpageshadow="2"
     inkscape:pageopacity="0.0"
     inkscape:pagecheckerboard="0"
     inkscape:deskcolor="#d1d1d1"
     inkscape:zoom="0.78808594"
     inkscape:cx="409.21933"
     inkscape:cy="418.10161"
     inkscape:window-width="1920"
     inkscape:window-height="1009"
     inkscape:window-x="-8"
     inkscape:window-y="-8"
     inkscape:window-maximized="1"
     inkscape:current-layer="svg22" />
  <path
     d="M 689.30624,86.812602 H 67.955786 V 834.6729 l 41.688284,61.99054 H 789.73382 V 184.92817 A 99.127073,99.127073 0 0 0 689.30624,86.812602 Z"
     fill="#5fb0e5"
     id="path3"
     style="fill:#000000;fill-opacity:1" />
  <path
     d="M 740.09803,910.3187 H 108.56032 L 67.594536,879.75693 V 763.3621 H 740.09803 Z"
     fill="#ffffff"
     id="path4" />
  <path
     d="M 733.66778,86.812602 H 99.962559 A 32.440274,32.440274 0 0 0 67.594536,119.25288 v 693.0225 L 108.27132,766.3966 H 764.95205 V 118.45812 A 31.645523,31.645523 0 0 0 733.66778,86.812602 Z"
     fill="#d2e9f7"
     id="path5"
     style="fill:#f7f0d2;fill-opacity:1" />
  <path
     d="M 49.965523,858.44317 V 132.11338 A 62.929796,62.929796 0 0 1 112.82307,69.255839 h 19.65201 V 104.44161 H 112.82307 A 27.67177,27.67177 0 0 0 85.223549,132.11338 V 766.1076 l 15.822761,-17.34001 h 498.52537 v 35.25802 H 116.43557 Z"
     fill="#0686d8"
     id="path6"
     style="fill:#000000;fill-opacity:1" />
  <path
     d="m 169.75611,69.255839 h 82.72631 v 35.258021 h -82.72631 z"
     fill="#0686d8"
     id="path7"
     style="fill:#000000;fill-opacity:1" />
  <path
     d="M 782.87006,219.7527 H 747.61204 V 130.45163 A 26.010019,26.010019 0 0 0 721.67427,104.44161 H 301.25121 V 69.255839 h 420.42306 a 61.268045,61.268045 0 0 1 61.19579,61.195791 z"
     fill="#0686d8"
     id="path8"
     style="fill:#000000;fill-opacity:1" />
  <path
     d="M 652.45872,928.01997 H 136.37659 c -48.407541,0 -86.700068,-27.96077 -86.700067,-63.5078 v -55.27129 c 0,-35.61928 38.003526,-63.5078 86.700067,-63.5078 h 467.09659 v 35.25803 H 136.37659 c -29.26127,0 -51.153041,14.95576 -51.153041,28.24977 v 55.27129 c 0,13.29401 21.675021,28.24977 51.153041,28.24977 h 516.08213 z"
     fill="#0686d8"
     id="path9"
     style="fill:#000000;fill-opacity:1" />
  <path
     d="m 309.63221,856.56467 -47.97403,-22.97552 -47.90179,22.97552 V 764.0846 h 95.87582 z"
     fill="#5fb0e5"
     id="path10"
     style="fill:#f7f0d2;fill-opacity:1" />
  <path
     d="m 327.18898,884.52544 -65.5308,-31.35653 -65.5308,31.35653 V 746.45558 h 131.0616 z m -65.5308,-70.51606 30.34502,14.45001 v -46.81803 h -60.90679 v 46.81803 z"
     fill="#0686d8"
     id="path11"
     style="fill:#000000;fill-opacity:1" />
  <path
     d="m 194.75463,297.85501 h 321.22374 v 35.25802 H 194.75463 Z"
     fill="#0686d8"
     id="path12"
     style="fill:#000000;fill-opacity:1" />
  <path
     d="m 194.75463,374.00656 h 278.23495 v 35.25803 H 194.75463 Z"
     fill="#0686d8"
     id="path13"
     style="fill:#000000;fill-opacity:1" />
  <path
     d="m 333.33023,450.23037 h 128.24385 v 35.25802 H 333.33023 Z"
     fill="#0686d8"
     id="path14"
     style="fill:#000000;fill-opacity:1" />
  <path
     d="m 722.46902,763.3621 h 35.25802 v 141.3211 h -35.25802 z"
     fill="#0686d8"
     id="path15"
     style="fill:#000000;fill-opacity:1" />
  <path
     d="m 720.08477,748.18959 h 35.25802 v 42.33333 60.69524 h -35.25802 z"
     fill="#0686d8"
     id="path16"
     style="fill:#000000;fill-opacity:1"
     sodipodi:nodetypes="cccccc" />
  <path
     d="M 737.71378,263.68073 A 248.61243,248.61243 0 1 0 986.32621,512.50991 248.68468,248.68468 0 0 0 737.71378,263.68073 Z m 0,437.54632 A 188.93389,188.93389 0 1 1 926.57542,512.50991 188.86164,188.86164 0 0 1 737.71378,701.22705 Z"
     fill="#9ecfef"
     id="path17"
     style="fill:#f7f0d2;fill-opacity:1" />
  <path
     d="m 737.71378,778.53461 a 266.24144,266.24144 0 1 1 266.45812,-266.0247 266.53044,266.53044 0 0 1 -266.45812,266.0247 z m 0,-497.22487 A 231.20017,231.20017 0 1 0 968.91395,512.50991 231.20017,231.20017 0 0 0 737.71378,281.30974 Z"
     fill="#0686d8"
     id="path18"
     style="fill:#000000;fill-opacity:1" />
  <path
     d="m 688.58374,820.87314 h 98.18782 v 108.01383 h -98.18782 z"
     fill="#9ecfef"
     id="path19"
     style="fill:#f7f0d2;fill-opacity:1" />
  <path
     d="M 804.47283,927.51422 H 769.2148 V 838.4299 h -63.00205 v 89.08432 H 670.95473 V 803.17188 h 133.5181 z"
     fill="#0686d8"
     id="path20"
     style="fill:#000000;fill-opacity:1" />
  <path
     d="M 686.19949,873.90468 H 789.22807 V 909.1627 H 686.19949 Z"
     fill="#0686d8"
     id="path21"
     style="fill:#000000;fill-opacity:1" />
</svg>
